<svg xmlns="http://www.w3.org/2000/svg" viewBox="0 0 1024 1024" width="1024" height="1024">
  <defs><linearGradient id="g" x1="0" y1="0" x2="1" y2="1"><stop offset="0" stop-color="#7b6be0"/><stop offset="1" stop-color="#5646b8"/></linearGradient></defs>
  <rect x="64" y="64" width="896" height="896" rx="200" fill="url(#g)"/>
  <line x1="420" y1="420" x2="640" y2="640" stroke="#fffdf9" stroke-width="34" stroke-linecap="round"/>
  <path d="M200 250 h330 a70 70 0 0 1 70 70 v130 a70 70 0 0 1 -70 70 h-190 l-80 70 v-70 h-60 a70 70 0 0 1 -70 -70 v-130 a70 70 0 0 1 70 -70z" fill="#fffdf9"/>
  <rect x="540" y="560" width="290" height="230" rx="44" fill="#fff3b0"/>
  <circle cx="600" cy="385" r="34" fill="#fffdf9" stroke="#5646b8" stroke-width="18"/>
  <circle cx="540" cy="600" r="34" fill="#fffdf9" stroke="#5646b8" stroke-width="18"/>
  <rect x="250" y="330" width="220" height="30" rx="15" fill="#c9bff5"/>
  <rect x="250" y="395" width="150" height="30" rx="15" fill="#c9bff5"/>
  <rect x="590" y="620" width="190" height="26" rx="13" fill="#eedb7a"/>
  <rect x="590" y="680" width="130" height="26" rx="13" fill="#eedb7a"/>
</svg>
